<?xml version="1.0" encoding="UTF-8" standalone="no"?>
<!DOCTYPE svg PUBLIC "-//W3C//DTD SVG 1.1//EN" "http://www.w3.org/Graphics/SVG/1.1/DTD/svg11.dtd">
<!-- Created with Vectornator (http://vectornator.io/) -->
<svg height="100%" stroke-miterlimit="10" style="fill-rule:nonzero;clip-rule:evenodd;stroke-linecap:round;stroke-linejoin:round;" version="1.1" viewBox="0 0 3000 3000" width="100%" xml:space="preserve" xmlns="http://www.w3.org/2000/svg" xmlns:vectornator="http://vectornator.io" xmlns:xlink="http://www.w3.org/1999/xlink">
<defs/>
<g id="Layer-1" vectornator:layerName="Layer 1">
<path d="M1048.56 1266.72C1029.83 1267.22 1003.85 1303.1 981.125 1307.62C933.123 1317.18 883.219 1322.14 834.875 1314.94C796.75 1309.26 764.811 1275.41 726.5 1271.5C721.287 1368.37 800.428 1397.84 718.25 1455.78C690.422 1475.4 707.542 1482.03 674.906 1483.62C613.253 1486.65 551.512 1486.62 489.812 1488.12C492.221 1492.51 492.393 1500.62 497.031 1501.31C549.703 1509.17 603.225 1507.58 656.156 1512.97C667.891 1514.16 708.887 1521.67 718.156 1537.12C731.473 1559.33 777.509 1652.25 780.188 1676.94C789.219 1760.18 786.119 1845.13 800.844 1927.41C811.082 1984.61 839.077 2036.33 854.5 2092.12C867.329 2138.54 813.936 2190.82 792.406 2213.59C776.927 2229.97 759.639 2245.02 740.281 2255.34C703.02 2275.21 659.525 2283.8 627.438 2312.5C751.858 2318.17 810.536 2283.58 908.188 2198.19C925.508 2220.42 937.706 2228.99 941.188 2259.12C946.476 2304.9 940.562 2352.33 950.656 2397.12C952.914 2407.15 966.341 2409.76 975.594 2411.81C1002.25 2417.71 1052.25 2396.08 1045.78 2357.66C1031.44 2272.49 1004.99 2190.09 990.75 2104.91C985.933 2076.1 1003.35 2047.83 1023.78 2032.72C1078.55 1992.2 1098.49 2099.92 1113.91 2122.97C1144.43 2168.61 1283.51 2174.2 1321.41 2135.47C1340.35 2116.11 1327.94 2062.58 1299.19 2061.09C1258.68 2058.99 1218.33 2068.24 1177.91 2071.81C1175.88 2039.3 1177.99 2006.17 1171.84 1974.28C1154.06 1881.99 1073.22 1833.33 1056.81 1731.47C1050.85 1694.48 1085.96 1662.64 1092.59 1625.78C1099.28 1588.64 1092.59 1550.08 1092.59 1512.22C1242.6 1509.21 1242.59 1509.2 1392.59 1506.19C1392.59 1497.16 1392.59 1497.15 1392.59 1488.12C1321.2 1487.87 1249.8 1489.68 1178.44 1487.38C1148.89 1486.42 1118.93 1485.63 1090.12 1478.38C998.662 1455.35 1098.22 1322.5 1060.25 1272.81C1056.83 1268.34 1052.88 1266.6 1048.56 1266.72ZM732.031 1283.53C778.213 1292.44 810.508 1327.01 858.812 1328.69C882.861 1329.52 920.868 1325.49 948.094 1332.44C975.825 1339.51 967 1349.74 988.688 1370.81C1009.43 1390.97 1018.18 1384.74 1029.97 1404.66C1059.05 1453.78 1050.51 1487.91 1023.75 1509.97C1036.27 1511.47 1047.78 1517.69 1055.94 1527.34C1057.71 1529.08 1059.39 1530.91 1060.88 1532.88C1063.09 1533.83 1065.39 1535.13 1067.88 1537.06C1140.16 1593.5 1030.96 1678.66 1034.78 1701.75C1042.08 1745.78 1050.32 1831.35 1069.69 1872.41C1092.62 1921.02 1116.55 1931.73 1153.12 1979.31C1173.44 2005.75 1145.82 2062.02 1170.5 2077.28C1216.47 2105.71 1294.98 2044.41 1312.09 2093.62C1329.92 2144.88 1237.12 2138.06 1224.69 2138C1195.89 2137.86 1166.89 2136.57 1138.5 2131.25C1115.65 2126.97 1094.71 1937.58 1012.06 2026.69C980.614 2060.59 972.194 2083.72 982.5 2132C998.63 2207.56 1020.56 2281.64 1034.78 2357.66C1036.5 2366.86 1026.25 2386.78 1017.06 2389.81C923.752 2420.64 961.363 2262.76 931.812 2209.41C886.872 2128.27 827.881 2044.13 829.906 1943.19C830.333 1921.91 842.171 1902.06 842.125 1880.78C842.081 1860.42 795.902 1857.91 803.594 1843.16C840.64 1772.1 863.902 1746.23 852.094 1658.31C844.273 1600.08 754.202 1656.92 740.281 1557.34C738.474 1544.42 728.986 1527.37 737.531 1518.22C740.716 1514.81 744.72 1513.34 749.219 1513.22C754.602 1513.07 760.677 1515.01 766.812 1517.78C772.432 1513.41 778.749 1510.58 785.312 1508.94C783.803 1507.09 782.504 1505.17 781.562 1503.19C765.888 1470.1 770.562 1427.42 770.562 1391.84C781.627 1396.78 792.41 1392.34 796.688 1378.31C809.639 1335.84 756.072 1305.77 732.031 1283.53ZM884.719 1497.81C883.948 1497.92 883.049 1498.04 882.906 1498.06C880.823 1498.37 879.205 1498.48 877.5 1498.66C881.854 1502.29 885.467 1505.83 888.75 1509.25C888.802 1509.24 888.854 1509.23 888.906 1509.22C891.545 1508.81 893.706 1508.63 896.125 1508.53C898.429 1508.44 900.837 1508.42 903.656 1508.47C904.802 1508.49 909.002 1508.6 909.875 1508.62C910.19 1508.62 910.595 1508.6 911.344 1508.53C912.388 1508.44 916.988 1507.89 917.375 1507.84C924.208 1507.01 928.798 1506.59 934.562 1506.59C939.678 1506.59 944.509 1507.6 949.156 1509.03C951.978 1505.64 954.325 1502.92 957.656 1498.78C954.362 1499.46 950.966 1499.84 947.469 1499.84C937.569 1499.84 929.663 1499.57 913.625 1498.78C913.28 1498.76 913.282 1498.77 912.938 1498.75C898.502 1498.04 892.119 1497.84 884.719 1497.81Z" fill="#000000" fill-rule="nonzero" opacity="1" stroke="none"/>
<path d="M1504.5 293.647L1501.84 2710.43" fill="none" opacity="1" stroke="#000000" stroke-linecap="round" stroke-linejoin="round" stroke-width="40"/>
<g opacity="1">
<path d="M2482.09 2363.56C2489.51 2369.18 2497.22 2374.28 2505.31 2378.88C2528.19 2391.85 2552.92 2401.1 2576.94 2411.66C2601.43 2422.42 2625.89 2434.76 2645.09 2453.78C2654.51 2463.11 2662.9 2473.5 2670.72 2484.19C2686.61 2505.92 2699.6 2529.59 2711.88 2553.5C2727.53 2584 2742.21 2615.08 2760.62 2644.06C2768.53 2656.5 2777.14 2668.44 2786.59 2679.75C2787.56 2680.9 2789.28 2681.06 2790.44 2680.09C2791.59 2679.12 2791.75 2677.4 2790.78 2676.25C2781.43 2665.16 2772.92 2653.44 2765.06 2641.25C2740.83 2603.63 2722.71 2562.51 2700.19 2523.91C2689.3 2505.25 2677.42 2487.13 2663.56 2470.53C2658.24 2464.15 2652.67 2457.9 2646.69 2452.12C2627.07 2433.19 2602.28 2421.03 2577.44 2410.47C2553.31 2400.2 2528.48 2391.29 2505.47 2378.59C2497.33 2374.1 2489.57 2369.08 2482.09 2363.56Z" fill="#2e1910" stroke="none"/>
</g>
<g opacity="1">
<path d="M2477.34 2437.59C2469.61 2436.79 2442.11 2443.46 2430.28 2443.25C2391.22 2442.56 2347.75 2438.31 2309.03 2446.81C2265.65 2456.34 2227.6 2486.65 2193.59 2513.62C2192.87 2514.2 2174.01 2529.82 2174 2530.84C2173.96 2534.32 2180.53 2533.26 2183.59 2534.91C2192.14 2539.48 2199.34 2546.29 2207.72 2551.16C2231.74 2565.11 2268.65 2565.52 2295.59 2560.22C2347.05 2550.1 2393.47 2503.3 2432.84 2471.81C2447.3 2460.25 2462.59 2452.92 2477.19 2441.41C2480.31 2438.94 2479.92 2437.86 2477.34 2437.59ZM2395.22 2472.34C2395.49 2472.35 2395.73 2472.6 2395.72 2472.88C2395.71 2473.15 2395.46 2473.35 2395.19 2473.34C2385.28 2473.09 2375.37 2474.99 2364.5 2478.88C2356.24 2481.83 2349.72 2484.86 2335.31 2492.06C2334.82 2492.31 2334.8 2492.32 2334.31 2492.56C2315.73 2501.85 2306.64 2505.76 2295.41 2508.53C2295.14 2508.6 2294.88 2508.42 2294.81 2508.16C2294.75 2507.89 2294.92 2507.63 2295.19 2507.56C2306.32 2504.82 2315.36 2500.91 2333.88 2491.66C2334.37 2491.41 2334.35 2491.4 2334.84 2491.16C2349.29 2483.94 2355.85 2480.91 2364.16 2477.94C2375.14 2474.01 2385.18 2472.09 2395.22 2472.34Z" fill="#000000" fill-rule="nonzero" stroke="none"/>
<path d="M2475.66 2437.06C2474.69 2437.07 2473.74 2437.14 2472.78 2437.22C2469.21 2437.52 2465.63 2438.06 2462.09 2438.62C2455.96 2439.6 2449.86 2440.71 2443.72 2441.59C2440.33 2442.08 2436.95 2442.52 2433.53 2442.72C2431.23 2442.85 2428.93 2442.77 2426.62 2442.72C2401.6 2442.2 2376.57 2440.51 2351.53 2441.44C2336.33 2442 2321.06 2443.49 2306.25 2447.06C2287.6 2451.56 2270.05 2459.81 2253.66 2469.66C2239.47 2478.17 2226.06 2487.94 2212.97 2498.03C2205.41 2503.86 2197.86 2509.69 2190.53 2515.81C2185.95 2519.64 2181.35 2523.49 2176.94 2527.5C2176.08 2528.28 2175.23 2529.03 2174.47 2529.91C2173.72 2530.77 2173.4 2531.38 2174.28 2532.41C2174.46 2532.62 2174.67 2532.79 2174.91 2532.94C2176.8 2534.14 2179.63 2533.99 2181.75 2534.5C2183.52 2534.93 2185.09 2535.97 2186.62 2536.91C2193.87 2541.35 2200.26 2547.03 2207.59 2551.34C2213.3 2554.7 2219.58 2557.11 2225.94 2558.91C2235.85 2561.71 2246.13 2563.02 2256.41 2563.41C2265.36 2563.74 2274.35 2563.37 2283.25 2562.31C2291.77 2561.3 2300.22 2559.66 2308.41 2557.09C2319.74 2553.54 2330.55 2548.43 2340.84 2542.53C2352.85 2535.66 2364.06 2527.56 2375.03 2519.16C2367.76 2524.71 2360.34 2530.09 2352.66 2535.06C2338.82 2544.02 2324.1 2551.88 2308.31 2556.81C2299.55 2559.55 2290.5 2561.22 2281.38 2562.19C2273.09 2563.07 2264.76 2563.39 2256.44 2563.06C2246.19 2562.66 2235.91 2561.31 2226.03 2558.5C2219.72 2556.7 2213.51 2554.31 2207.84 2550.97C2200.52 2546.65 2194.11 2540.98 2186.88 2536.53C2185.6 2535.75 2184.26 2534.82 2182.84 2534.31C2181.52 2533.84 2180.1 2533.72 2178.72 2533.5C2177.44 2533.3 2174.87 2533.01 2174.34 2531.53C2174.34 2531.51 2174.22 2531.17 2174.25 2531.03C2174.32 2530.73 2174.65 2530.48 2174.84 2530.25C2175.06 2530 2175.27 2529.71 2175.5 2529.47C2175.78 2529.19 2176.11 2528.95 2176.41 2528.69C2176.7 2528.42 2176.98 2528.14 2177.28 2527.88C2180.54 2524.92 2183.89 2522.08 2187.25 2519.25C2193.26 2514.18 2199.44 2509.32 2205.62 2504.47C2214.48 2497.52 2223.47 2490.73 2232.66 2484.22C2252.81 2469.94 2274.62 2457.12 2298.41 2449.97C2316.42 2444.55 2335.39 2442.74 2354.12 2442.19C2371.2 2441.68 2388.31 2442.32 2405.38 2442.94C2411.22 2443.15 2417.06 2443.37 2422.91 2443.53C2426.17 2443.62 2429.43 2443.8 2432.69 2443.66C2440.66 2443.31 2448.69 2441.73 2456.56 2440.44C2461.42 2439.64 2466.29 2438.81 2471.19 2438.28C2472.47 2438.14 2471.19 2438.3 2477.31 2438.06C2477.4 2438.07 2477.42 2437.95 2477.5 2437.91C2477.47 2437.84 2477.34 2437.59 2477.34 2437.59C2477.34 2437.59 2477.6 2437.7 2477.69 2437.72C2477.71 2437.67 2477.81 2437.68 2477.81 2437.62C2477.83 2437.37 2477.63 2437.15 2477.38 2437.12C2476.86 2437.08 2477.06 2437.14 2476.88 2437.09C2476.49 2436.99 2476.06 2437.06 2475.66 2437.06ZM2477.69 2437.72C2477.65 2437.8 2477.58 2437.86 2477.5 2437.91C2477.74 2438.38 2478.57 2440.11 2478.19 2440.53C2478.57 2440.18 2478.94 2439.81 2479.19 2439.38C2479.79 2438.33 2478.21 2437.86 2477.69 2437.72ZM2478.19 2440.53C2478.14 2440.57 2478.11 2440.62 2478.06 2440.66C2478.1 2440.62 2478.15 2440.6 2478.19 2440.56C2478.19 2440.56 2478.18 2440.54 2478.19 2440.53ZM2478.06 2440.66C2477.24 2441.41 2476.33 2442.06 2475.44 2442.72C2475.72 2442.51 2476 2442.3 2476.28 2442.09C2476.86 2441.66 2477.48 2441.18 2478.06 2440.66ZM2375.03 2519.16C2376.85 2517.76 2378.66 2516.35 2380.47 2514.94C2378.67 2516.36 2376.85 2517.76 2375.03 2519.16ZM2380.47 2514.94C2383.59 2512.49 2386.8 2510.16 2389.88 2507.66C2399.73 2499.65 2409.34 2491.38 2419.06 2483.22C2424.79 2478.41 2430.51 2473.52 2436.5 2469.03C2440.09 2466.34 2443.78 2463.83 2447.53 2461.38C2443.78 2463.82 2440.03 2466.29 2436.44 2468.97C2432.21 2472.13 2428.16 2475.54 2424.09 2478.91C2417.13 2484.67 2410.23 2490.5 2403.31 2496.31C2395.8 2502.63 2388.2 2508.87 2380.47 2514.94ZM2447.53 2461.38C2453.51 2457.46 2459.6 2453.68 2465.53 2449.69C2461.72 2452.22 2457.89 2454.71 2454.03 2457.16C2451.85 2458.54 2449.69 2459.97 2447.53 2461.38ZM2465.53 2449.69C2466.96 2448.74 2468.44 2447.86 2469.84 2446.88C2470.45 2446.45 2471.03 2445.98 2471.62 2445.53C2469.66 2447 2467.57 2448.32 2465.53 2449.69ZM2395.28 2471.91C2395.03 2471.87 2394.82 2472.03 2394.78 2472.28C2394.78 2472.32 2394.84 2472.31 2394.84 2472.34C2394.41 2472.34 2391.76 2472.3 2390.19 2472.38C2388.5 2472.45 2386.83 2472.59 2385.16 2472.78C2381.69 2473.17 2378.26 2473.89 2374.88 2474.72C2379.39 2473.6 2394.17 2472.43 2394.84 2472.38C2394.87 2472.57 2394.95 2472.75 2395.16 2472.78C2395.2 2472.88 2395.34 2472.88 2395.19 2472.88C2394.78 2472.87 2394.35 2472.88 2393.94 2472.88C2393.11 2472.87 2392.3 2472.88 2391.47 2472.91C2388.09 2473.01 2384.73 2473.35 2381.41 2473.91C2372.01 2475.49 2362.91 2478.68 2354.22 2482.53C2339.46 2489.06 2325.47 2497.28 2310.5 2503.34C2306.45 2504.99 2302.34 2506.4 2298.12 2507.56C2297.19 2507.82 2296.28 2508.08 2295.34 2508.31C2295.28 2508.33 2295.22 2508.32 2295.16 2508.28C2294.99 2508.18 2294.98 2507.91 2295.16 2507.81C2295.6 2507.58 2296.14 2507.56 2296.62 2507.44C2297.56 2507.19 2298.41 2506.96 2299.34 2506.69C2301.63 2506.03 2303.89 2505.28 2306.12 2504.47C2313.79 2501.68 2321.13 2498.11 2328.44 2494.5C2339.48 2489.05 2350.45 2483.21 2361.97 2478.84C2346.29 2484.69 2331.62 2493.08 2316.34 2499.88C2310.77 2502.35 2305.09 2504.58 2299.22 2506.25C2297.86 2506.64 2296.49 2506.98 2295.12 2507.34C2294.74 2507.45 2294.5 2507.82 2294.59 2508.22C2294.69 2508.61 2295.07 2508.84 2295.47 2508.75C2295.94 2508.64 2296.41 2508.53 2296.88 2508.41C2297.82 2508.16 2298.65 2507.92 2299.59 2507.66C2304.41 2506.29 2309.11 2504.57 2313.72 2502.62C2332.21 2494.82 2349.46 2484.02 2368.66 2477.94C2374.87 2475.97 2381.28 2474.52 2387.78 2474C2389.42 2473.87 2391.07 2473.8 2392.72 2473.78C2393.53 2473.77 2394.62 2473.96 2395.41 2473.78C2396.02 2473.64 2396.37 2472.97 2396.06 2472.41C2395.99 2472.27 2396.04 2472.41 2395.28 2471.91ZM2361.97 2478.84C2362.54 2478.63 2363.11 2478.42 2363.69 2478.22C2363.11 2478.43 2362.54 2478.63 2361.97 2478.84ZM2363.69 2478.22C2367.35 2476.89 2371.06 2475.67 2374.88 2474.72C2373.1 2475.15 2371.31 2475.57 2369.56 2476.09C2367.56 2476.7 2365.65 2477.52 2363.69 2478.22Z" fill="#000000" stroke="none"/>
</g>
<g opacity="1">
<path d="M2580.28 2344.8C2570.77 2363.67 2546.34 2312.85 2535.72 2296.11C2504.37 2246.68 2482.47 2190.54 2500.71 2131.71C2501.28 2129.89 2519.22 2088.19 2520.15 2087.87C2528.72 2084.96 2571.79 2121.68 2578.98 2129.89C2632.46 2191.06 2610.75 2284.31 2580.28 2344.8Z" fill="#000000" fill-rule="nonzero" stroke="none"/>
<path d="M2522.19 2087.53C2521.58 2087.44 2520.96 2087.43 2520.38 2087.56C2519.8 2087.69 2519.64 2088.17 2519.38 2088.66C2518.96 2089.43 2518.59 2090.21 2518.22 2091C2516.78 2094.01 2515.42 2097.05 2514.06 2100.09C2511.01 2106.94 2507.99 2113.8 2505.03 2120.69C2504.02 2123.04 2503.02 2125.39 2502.03 2127.75C2501.5 2129.01 2500.92 2130.27 2500.47 2131.56C2500.06 2132.72 2499.68 2134.13 2499.34 2135.31C2494.03 2154.05 2492.56 2173.72 2494.72 2193.06C2497.11 2214.43 2503.7 2235.19 2512.56 2254.72C2517.08 2264.69 2522.19 2274.37 2527.72 2283.81C2531.69 2290.6 2535.98 2297.19 2539.91 2304C2544.78 2312.46 2549.53 2320.98 2554.81 2329.19C2558.03 2334.19 2561.41 2339.19 2565.5 2343.53C2566 2344.06 2566.53 2344.59 2567.06 2345.09C2569.74 2347.63 2574.13 2351.03 2577.88 2348.5C2578.45 2348.11 2577.87 2348.49 2580.69 2345C2580.81 2344.78 2580.72 2344.52 2580.5 2344.41C2580.49 2344.4 2580.48 2344.41 2580.47 2344.41C2580.46 2344.4 2580.45 2344.41 2580.44 2344.41C2580.23 2344.33 2579.98 2344.39 2579.88 2344.59C2578.97 2346.11 2579.35 2345.56 2578.97 2346.09C2578.3 2347.03 2577.42 2347.9 2576.31 2348.28C2573.02 2349.4 2569.31 2346.07 2567.19 2343.97C2566.67 2343.45 2566.15 2342.92 2565.66 2342.38C2565.14 2341.81 2564.57 2341.16 2564.09 2340.59C2563.36 2339.72 2562.69 2338.87 2562 2337.97C2552.49 2325.59 2545.55 2311.47 2537.5 2298.16C2533.89 2292.18 2530.1 2286.31 2526.62 2280.25C2520.02 2268.7 2514.04 2256.77 2509.03 2244.44C2501.89 2226.87 2496.78 2208.39 2495.06 2189.47C2493.36 2170.7 2495.1 2151.71 2500.44 2133.62C2501.1 2131.38 2502 2129.29 2502.91 2127.12C2503.95 2124.65 2505 2122.19 2506.06 2119.72C2509.02 2112.81 2512 2105.92 2515.06 2099.06C2516.34 2096.2 2517.63 2093.32 2519 2090.5C2519.32 2089.83 2519.64 2089.15 2520 2088.5C2520.07 2088.37 2520.13 2088.11 2520.22 2088.09C2523.12 2087.45 2526.78 2089.47 2529.25 2090.78C2530.13 2091.25 2530.98 2091.74 2531.84 2092.25C2532.79 2092.81 2533.66 2093.35 2534.59 2093.94C2535.52 2094.52 2536.59 2095.2 2537.5 2095.81C2544.54 2100.53 2551.25 2105.76 2557.81 2111.12C2563.56 2115.82 2569.23 2120.64 2574.62 2125.75C2581.75 2132.5 2587.59 2140.56 2592.56 2149C2609.48 2177.72 2613.69 2211.63 2610.5 2244.56C2613.51 2214.35 2610.51 2183.57 2596.88 2156.28C2593.79 2150.11 2590.21 2144.18 2586.16 2138.59C2583.81 2135.36 2581.34 2132.16 2578.62 2129.22C2576.11 2126.49 2573.32 2124.01 2570.56 2121.53C2564.49 2116.07 2558.24 2110.82 2551.81 2105.78C2546.32 2101.48 2540.7 2097.31 2534.81 2093.56C2533.88 2092.97 2533.01 2092.41 2532.06 2091.84C2529.5 2090.33 2526.8 2088.82 2523.94 2087.94C2523.38 2087.77 2522.79 2087.62 2522.19 2087.53ZM2610.5 2244.56C2609.97 2250.01 2609.25 2255.42 2608.34 2260.78C2609.26 2255.4 2609.96 2250 2610.5 2244.56ZM2580.47 2344.41C2580.68 2343.99 2581.61 2342.15 2582.19 2340.97C2582.82 2339.67 2583.42 2338.37 2584.03 2337.06C2584.81 2335.41 2585.54 2333.73 2586.28 2332.06C2584.62 2335.69 2580.72 2343.88 2580.47 2344.41ZM2608.25 2261.25C2607.34 2266.54 2606.26 2271.78 2605.03 2276.94C2603.54 2283.17 2601.87 2289.37 2600 2295.5C2600.59 2293.57 2601.29 2291.69 2601.84 2289.75C2604.48 2280.49 2606.59 2270.93 2608.25 2261.25ZM2600 2295.5C2599.65 2296.63 2599.3 2297.75 2598.94 2298.88C2599.18 2298.1 2599.48 2297.34 2599.72 2296.56C2599.83 2296.21 2599.89 2295.85 2600 2295.5ZM2598.94 2298.88C2597.49 2303.43 2595.94 2307.95 2594.28 2312.44C2595.95 2307.95 2597.48 2303.43 2598.94 2298.88ZM2594.28 2312.44C2593.66 2314.12 2593 2315.8 2592.34 2317.47C2593 2315.79 2593.66 2314.12 2594.28 2312.44ZM2592.34 2317.47C2590.64 2321.85 2588.87 2326.2 2586.97 2330.5C2587.64 2328.97 2588.37 2327.47 2589.03 2325.94C2590.22 2323.15 2591.24 2320.29 2592.34 2317.47Z" fill="#000000" stroke="none"/>
</g>
<g opacity="1">
<path d="M2376.69 2319.9C2384.66 2303.51 2385.56 2299.35 2378.13 2283.95C2365.05 2256.82 2254.48 2214.26 2221.81 2207.23C2214.54 2205.66 2157.55 2199.64 2156.39 2201.98C2151 2212.76 2164.07 2224.83 2168.36 2236.09C2171.46 2244.22 2174.43 2252.4 2177.85 2260.4C2198.32 2308.17 2307.24 2350.42 2357.4 2333.1C2364.76 2330.55 2373.29 2326.91 2376.69 2319.9Z" fill="#000000" fill-rule="nonzero" stroke="none"/>
<path d="M2159.66 2201.22C2158.91 2201.24 2156.85 2201.15 2156.28 2201.72C2155.95 2202.05 2155.75 2202.82 2155.59 2203.25C2155.19 2204.38 2154.94 2205.55 2154.88 2206.75C2154.62 2211.62 2157 2216.31 2159.34 2220.41C2162.34 2225.64 2165.84 2230.56 2168.16 2236.16C2169.12 2238.5 2169.98 2240.91 2170.88 2243.28C2172.41 2247.35 2173.97 2251.4 2175.59 2255.44C2176.68 2258.14 2177.78 2260.88 2179.09 2263.47C2180.94 2267.11 2183.19 2270.52 2185.69 2273.75C2196.11 2287.21 2210.66 2297.74 2225.28 2306.22C2239.81 2314.65 2255.33 2321.4 2271.28 2326.62C2285.95 2331.43 2301.12 2334.98 2316.5 2336.44C2321.1 2336.87 2325.74 2337.01 2330.38 2337C2321.26 2337.03 2312.11 2336.05 2303.31 2334.53C2288.5 2331.97 2273.94 2327.75 2259.91 2322.38C2245.86 2317 2232.23 2310.42 2219.5 2302.41C2206.56 2294.26 2193.99 2284.5 2184.88 2272.09C2182.83 2269.31 2180.97 2266.36 2179.41 2263.28C2177.77 2260.05 2176.5 2256.64 2175.16 2253.28C2173.41 2248.91 2171.76 2244.5 2170.09 2240.09C2169.22 2237.77 2168.39 2235.39 2167.31 2233.16C2165.14 2228.64 2162.23 2224.53 2159.75 2220.19C2157.06 2215.46 2154.18 2209.68 2155.81 2204.09C2156.02 2203.4 2156.29 2202.75 2156.59 2202.09C2156.69 2201.88 2158.26 2201.76 2158.47 2201.75C2160.54 2201.62 2162.62 2201.7 2164.69 2201.78C2165.14 2201.8 2165.61 2201.82 2166.06 2201.84C2167.07 2201.89 2168.03 2201.94 2169.03 2202C2170.05 2202.06 2171.2 2202.15 2172.22 2202.22C2173.27 2202.29 2174.61 2202.39 2175.66 2202.47C2185.57 2203.24 2195.47 2204.22 2205.34 2205.34C2210.63 2205.95 2216.01 2206.45 2221.25 2207.44C2223.34 2207.83 2225.38 2208.36 2227.44 2208.91C2235.89 2211.14 2244.24 2213.89 2252.5 2216.75C2263.15 2220.44 2273.68 2224.41 2284.12 2228.62C2295.37 2233.16 2306.51 2237.98 2317.47 2243.16C2327.14 2247.72 2336.68 2252.55 2345.94 2257.91C2352.61 2261.77 2359.17 2265.87 2365.25 2270.62C2369.04 2273.59 2372.79 2276.86 2375.66 2280.75C2377.24 2282.91 2378.33 2285.31 2379.41 2287.75C2380.48 2290.18 2381.46 2292.67 2382.09 2295.25C2382.6 2297.3 2382.87 2299.42 2382.75 2301.53C2382.53 2305.34 2381.15 2308.97 2379.66 2312.44C2379.03 2313.9 2379.66 2312.45 2376.28 2319.72C2376.19 2319.9 2376.33 2320.05 2376.47 2320.19C2376.48 2320.17 2376.69 2319.91 2376.69 2319.91C2376.69 2319.91 2376.58 2320.13 2376.5 2320.28C2376.47 2320.26 2376.5 2320.21 2376.47 2320.19C2376.17 2320.59 2373.3 2324.46 2372 2325.66C2372.18 2325.5 2372.39 2325.38 2372.56 2325.22C2373.53 2324.36 2374.42 2323.42 2375.19 2322.38C2375.57 2321.86 2376 2321.34 2376.25 2320.75C2376.32 2320.59 2376.4 2320.49 2376.5 2320.31C2376.73 2320.42 2376.98 2320.32 2377.09 2320.09C2378.94 2316.23 2378.32 2317.57 2378.94 2316.25C2379.59 2314.85 2380.25 2313.43 2380.84 2312C2382.23 2308.68 2383.42 2305.21 2383.62 2301.59C2383.88 2297.25 2382.58 2293.03 2380.94 2289.06C2379.67 2286 2378.35 2282.9 2376.38 2280.22C2374.06 2277.08 2371.17 2274.37 2368.19 2271.88C2364.38 2268.69 2360.29 2265.83 2356.12 2263.12C2344.88 2255.83 2332.91 2249.68 2320.84 2243.88C2304.91 2236.22 2288.58 2229.38 2272.06 2223.09C2262.77 2219.55 2253.4 2216.22 2243.94 2213.16C2236.62 2210.79 2229.18 2208.38 2221.62 2206.88C2218.38 2206.23 2215.06 2205.9 2211.78 2205.5C2198.11 2203.84 2184.37 2202.45 2170.62 2201.59C2166.98 2201.37 2163.31 2201.14 2159.66 2201.22ZM2372 2325.66C2371.76 2325.86 2371.5 2326.05 2371.25 2326.25C2371.43 2326.11 2371.64 2326.02 2371.81 2325.88C2371.86 2325.84 2371.95 2325.71 2372 2325.66ZM2371.25 2326.25C2369.61 2327.53 2367.84 2328.65 2365.97 2329.59C2367.83 2328.65 2369.61 2327.52 2371.25 2326.25ZM2365.97 2329.59C2363.79 2330.69 2361.51 2331.62 2359.25 2332.44C2358.74 2332.62 2358.2 2332.73 2357.69 2332.91C2358.21 2332.73 2358.76 2332.66 2359.28 2332.47C2361.55 2331.65 2363.79 2330.7 2365.97 2329.59ZM2357.69 2332.91C2355.33 2333.7 2352.94 2334.33 2350.53 2334.88C2352.95 2334.33 2355.34 2333.69 2357.69 2332.91ZM2350.53 2334.88C2349.44 2335.12 2348.35 2335.36 2347.25 2335.56C2348.35 2335.36 2349.44 2335.12 2350.53 2334.88ZM2347.25 2335.56C2344.39 2336.08 2341.5 2336.52 2338.59 2336.75C2341.51 2336.51 2344.38 2336.08 2347.25 2335.56ZM2330.38 2337C2332.19 2336.99 2334 2336.97 2335.81 2336.88C2334 2336.97 2332.19 2336.99 2330.38 2337ZM2335.81 2336.88C2336.73 2336.83 2337.65 2336.82 2338.56 2336.75C2337.65 2336.82 2336.73 2336.83 2335.81 2336.88Z" fill="#000000" stroke="none"/>
</g>
<g opacity="1">
<path d="M2523.53 2442.19C2519.86 2442.09 2516.17 2442.11 2512.5 2442.22C2505.86 2442.41 2499.25 2442.96 2492.66 2443.69C2499.26 2442.99 2505.86 2442.47 2512.5 2442.31C2527.18 2441.97 2541.87 2443.21 2556.28 2446.03C2593.6 2453.35 2627.78 2470.89 2661.31 2488.12C2661.54 2488.24 2661.82 2488.16 2661.94 2487.94C2662.05 2487.71 2661.94 2487.43 2661.72 2487.31C2628.09 2470.11 2593.76 2452.84 2556.34 2445.72C2545.52 2443.66 2534.55 2442.47 2523.53 2442.19Z" fill="#000000" stroke="none"/>
</g>
<g opacity="1">
<path d="M2567.16 2330.41C2567.76 2345.3 2569.37 2360.16 2574.06 2374.38C2578.1 2386.59 2584.25 2397.8 2591.75 2408.22C2591.9 2408.42 2592.2 2408.46 2592.41 2408.31C2592.61 2408.17 2592.65 2407.89 2592.5 2407.69C2584.7 2396.93 2578.19 2385.31 2574.03 2372.66C2569.54 2358.98 2567.89 2344.72 2567.16 2330.41Z" fill="#000000" stroke="none"/>
</g>
<g opacity="1">
<path d="M2342.72 2315.03C2381.45 2319.02 2421.13 2323.07 2456.69 2340.16C2470.24 2346.67 2482.68 2355.02 2494.19 2364.66C2494.38 2364.82 2494.68 2364.79 2494.84 2364.59C2495 2364.4 2494.97 2364.13 2494.78 2363.97C2490.19 2360.14 2485.5 2356.42 2480.56 2353.03C2472.18 2347.27 2463.24 2342.29 2453.97 2338.09C2419.08 2322.31 2380.38 2318.7 2342.72 2315.03Z" fill="#000000" stroke="none"/>
</g>
<path d="M2565.28 2266.32C2565.28 2245.48 2565.28 2224.65 2565.28 2203.81" fill="#fffbdb" fill-rule="nonzero" opacity="1" stroke="none"/>
<path d="M203.857 1503.99L2796.52 1498.05" fill="none" opacity="1" stroke="#2e1910" stroke-linecap="round" stroke-linejoin="round" stroke-width="6"/>
<path d="M183.188 281.406L183.188 2718.59L2816.81 2718.59L2816.81 281.406L183.188 281.406ZM2395.22 2472.34C2395.49 2472.35 2395.73 2472.6 2395.72 2472.88C2395.71 2473.15 2395.46 2473.35 2395.19 2473.34C2385.28 2473.09 2375.37 2474.99 2364.5 2478.88C2356.24 2481.83 2349.72 2484.86 2335.31 2492.06C2334.82 2492.31 2334.8 2492.32 2334.31 2492.56C2315.73 2501.85 2306.64 2505.76 2295.41 2508.53C2295.14 2508.6 2294.88 2508.42 2294.81 2508.16C2294.75 2507.89 2294.92 2507.63 2295.19 2507.56C2306.32 2504.82 2315.36 2500.91 2333.88 2491.66C2334.37 2491.41 2334.35 2491.4 2334.84 2491.16C2349.29 2483.94 2355.85 2480.91 2364.16 2477.94C2375.14 2474.01 2385.18 2472.09 2395.22 2472.34Z" fill="none" opacity="1" stroke="#000000" stroke-linecap="round" stroke-linejoin="round" stroke-width="40"/>
<g opacity="1">
<path d="M2481.69 2363.97C2489.1 2369.58 2496.85 2374.69 2504.94 2379.28C2527.81 2392.26 2552.51 2401.47 2576.53 2412.03C2601.02 2422.8 2625.49 2435.17 2644.69 2454.19C2654.1 2463.51 2662.53 2473.91 2670.34 2484.59C2686.24 2506.33 2699.19 2529.96 2711.47 2553.88C2727.13 2584.38 2741.81 2615.49 2760.22 2644.47C2768.12 2656.91 2776.77 2668.85 2786.22 2680.16C2787.19 2681.31 2788.91 2681.47 2790.06 2680.5C2791.22 2679.53 2791.34 2677.81 2790.38 2676.66C2781.02 2665.57 2772.51 2653.85 2764.66 2641.66C2740.42 2604.04 2722.3 2562.91 2699.78 2524.31C2688.9 2505.66 2677.01 2487.54 2663.16 2470.94C2657.83 2464.56 2652.29 2458.3 2646.31 2452.53C2626.69 2433.6 2601.9 2421.44 2577.06 2410.88C2552.93 2400.61 2528.11 2391.69 2505.09 2379C2496.95 2374.51 2489.16 2369.49 2481.69 2363.97Z" fill="#000000" stroke="none"/>
</g>
<path d="M189.97 1506.14L2800.64 1500.2" fill="none" opacity="1" stroke="#000000" stroke-linecap="round" stroke-linejoin="round" stroke-width="40"/>
<path d="M827.276 1405.82C827.276 1395.52 835.626 1387.17 845.927 1387.17C856.229 1387.17 864.579 1395.52 864.579 1405.82C864.579 1416.12 856.229 1424.47 845.927 1424.47C835.626 1424.47 827.276 1416.12 827.276 1405.82Z" fill="#000000" fill-rule="nonzero" opacity="1" stroke="none"/>
<path d="M913.123 1403.19C913.123 1392.89 921.474 1384.53 931.775 1384.53C942.076 1384.53 950.427 1392.89 950.427 1403.19C950.427 1413.49 942.076 1421.84 931.775 1421.84C921.474 1421.84 913.123 1413.49 913.123 1403.19Z" fill="#000000" fill-rule="nonzero" opacity="1" stroke="none"/>
<path d="M893.156 1489.49C893.156 1489.49 878.863 1469.76 878.824 1464.66C878.784 1459.57 892.998 1469.1 892.998 1469.1C892.998 1469.1 907.449 1459.57 907.489 1464.66C907.528 1469.76 893.156 1489.49 893.156 1489.49Z" fill="#000000" fill-rule="nonzero" opacity="1" stroke="none"/>
</g>
</svg>
